# Blender v3.3.1 OBJ File: ''
# www.blender.org
mtllib меч.mtl
o Cube_Cube.001
v -0.067300 0.000000 0.619757
v -0.067300 0.029045 0.619757
v -0.067300 0.000000 -0.382000
v -0.067300 0.029905 -0.383640
v -0.001804 0.000000 0.619757
v -0.001804 0.029045 0.619757
v -0.001804 0.000000 -0.382000
v -0.001118 0.030133 -0.382551
v -0.030549 0.013400 -0.481240
v -0.030465 0.013231 -0.481482
v -0.030468 0.013238 -0.481207
v -0.030390 0.013245 -0.480886
v -0.083789 0.015931 0.625748
v -0.083682 0.015961 0.625578
v -0.083534 0.016624 -0.386373
v -0.083957 0.016533 -0.386882
v -0.067193 0.029997 -0.383790
v 0.016078 0.015846 0.618965
v 0.016009 0.016037 0.618965
v 0.015490 0.015614 -0.382569
v 0.015307 0.015626 -0.382792
v -0.001491 -0.000450 -0.381846
v -0.001226 -0.000376 -0.382007
v -0.001118 0.030133 -0.382551
v 0.015464 0.015659 -0.383073
v -0.030966 0.013345 -0.481614
v -0.031654 0.013157 -0.478239
v -0.030623 0.013243 -0.481614
v -0.031626 0.013561 -0.481786
v -0.030325 0.013051 -0.480921
v -0.030649 0.013646 -0.481529
v -0.031021 0.013436 -0.480921
v -0.030526 0.013490 -0.483036
v -0.066604 0.000043 -0.381968
v -0.083434 0.016601 -0.385753
v -0.067300 0.029905 -0.383640
v -0.082289 0.016687 -0.387156
v 0.086281 0.000048 0.619642
v 0.086281 0.000048 0.647524
v -0.159060 0.000048 0.619642
v -0.159060 0.000048 0.647524
v 0.086281 0.029002 0.619642
v 0.086281 0.029002 0.647524
v -0.159060 0.029002 0.619642
v -0.159060 0.029002 0.647524
v -0.033094 0.001089 0.931798
v -0.033094 0.002823 0.640711
v -0.026472 0.001305 0.931837
v -0.026472 0.003039 0.640751
v -0.020104 0.001944 0.931953
v -0.020104 0.003678 0.640867
v -0.014236 0.002982 0.932141
v -0.014236 0.004716 0.641055
v -0.009092 0.004379 0.932395
v -0.009092 0.006113 0.641309
v -0.004871 0.006081 0.932704
v -0.004871 0.007815 0.641618
v -0.001734 0.008023 0.933057
v -0.001734 0.009757 0.641971
v 0.000198 0.010130 0.933440
v 0.000198 0.011864 0.642353
v 0.000850 0.012322 0.933838
v 0.000850 0.014055 0.642751
v 0.000198 0.014513 0.934236
v 0.000198 0.016247 0.643149
v -0.001734 0.016620 0.934618
v -0.001734 0.018354 0.643532
v -0.004871 0.018562 0.934971
v -0.004871 0.020296 0.643885
v -0.009092 0.020264 0.935280
v -0.009092 0.021998 0.644194
v -0.014236 0.021661 0.935534
v -0.014236 0.023395 0.644448
v -0.020104 0.022699 0.935722
v -0.020104 0.024433 0.644636
v -0.026472 0.023338 0.935839
v -0.026472 0.025072 0.644752
v -0.033094 0.023554 0.935878
v -0.033094 0.025288 0.644792
v -0.039717 0.023338 0.935839
v -0.039717 0.025072 0.644752
v -0.046084 0.022699 0.935722
v -0.046084 0.024433 0.644636
v -0.051953 0.021661 0.935534
v -0.051953 0.023395 0.644448
v -0.057097 0.020264 0.935280
v -0.057097 0.021998 0.644194
v -0.061318 0.018562 0.934971
v -0.061318 0.020296 0.643885
v -0.064455 0.016620 0.934618
v -0.064455 0.018354 0.643532
v -0.066387 0.014513 0.934236
v -0.066387 0.016247 0.643149
v -0.067039 0.012322 0.933838
v -0.067039 0.014055 0.642751
v -0.066387 0.010130 0.933440
v -0.066387 0.011864 0.642353
v -0.064455 0.008023 0.933057
v -0.064455 0.009757 0.641971
v -0.061318 0.006081 0.932704
v -0.061318 0.007815 0.641618
v -0.057097 0.004379 0.932395
v -0.057097 0.006113 0.641309
v -0.051953 0.002982 0.932141
v -0.051953 0.004716 0.641055
v -0.046084 0.001944 0.931953
v -0.046084 0.003678 0.640867
v -0.039717 0.001305 0.931837
v -0.039717 0.003039 0.640751
v -0.190221 -0.027165 0.613449
v -0.190221 -0.027165 0.641331
v -0.190221 0.001788 0.613449
v -0.190221 0.001788 0.641331
v 0.119333 0.026564 0.616167
v 0.119333 0.026564 0.644049
v 0.119333 0.055518 0.616167
v 0.119333 0.055518 0.644049
v -0.033094 -0.012030 0.935587
v -0.025386 -0.011537 0.935575
v -0.017974 -0.010078 0.935538
v -0.011143 -0.007708 0.935477
v -0.005156 -0.004518 0.935396
v -0.000242 -0.000632 0.935296
v 0.003409 0.003802 0.935183
v 0.005657 0.008613 0.935060
v 0.006416 0.013616 0.934933
v 0.005657 0.018620 0.934805
v 0.003409 0.023431 0.934682
v -0.000242 0.027865 0.934569
v -0.005156 0.031751 0.934470
v -0.011143 0.034941 0.934388
v -0.017974 0.037311 0.934328
v -0.025386 0.038770 0.934290
v -0.033094 0.039263 0.934278
v -0.040803 0.038770 0.934290
v -0.048214 0.037311 0.934328
v -0.055045 0.034941 0.934388
v -0.061033 0.031751 0.934470
v -0.065946 0.027865 0.934569
v -0.069597 0.023431 0.934682
v -0.071846 0.018620 0.934805
v -0.072605 0.013616 0.934933
v -0.071846 0.008613 0.935060
v -0.069597 0.003802 0.935183
v -0.065946 -0.000632 0.935296
v -0.061033 -0.004518 0.935396
v -0.055045 -0.007708 0.935477
v -0.048214 -0.010078 0.935538
v -0.040803 -0.011537 0.935575
v -0.033094 0.014393 1.063782
vt 0.625000 0.500000
vt 0.875000 0.500000
vt 0.875000 0.500000
vt 0.625000 0.500000
vt 0.375000 0.500000
vt 0.375000 0.500000
vt 0.625000 0.500000
vt 0.625000 0.750000
vt 0.375000 0.750000
vt 0.375000 0.750000
vt 0.625000 0.750000
vt 0.625000 1.000000
vt 0.375000 1.000000
vt 0.125000 0.500000
vt 0.125000 0.750000
vt 0.875000 0.750000
vt 0.375000 0.250000
vt 0.625000 0.250000
vt 0.125000 0.500000
vt 0.875000 0.500000
vt 0.375000 0.250000
vt 0.625000 0.250000
vt 0.375000 0.000000
vt 0.625000 0.000000
vt 0.625000 0.250000
vt 0.375000 0.250000
vt 0.625000 1.000000
vt 0.375000 1.000000
vt 0.875000 0.750000
vt 0.125000 0.750000
vt 0.125000 0.500000
vt 0.375000 0.500000
vt 0.625000 0.500000
vt 0.375000 0.000000
vt 0.625000 0.000000
vt 0.625000 0.250000
vt 0.375000 0.250000
vt 0.625000 0.500000
vt 0.375000 0.500000
vt 0.625000 0.750000
vt 0.375000 0.750000
vt 0.625000 1.000000
vt 0.375000 1.000000
vt 0.125000 0.500000
vt 0.125000 0.750000
vt 0.875000 0.500000
vt 0.875000 0.750000
vt 0.375000 0.000000
vt 0.625000 0.000000
vt 0.625000 0.250000
vt 0.375000 0.250000
vt 0.625000 0.500000
vt 0.375000 0.500000
vt 0.625000 0.750000
vt 0.375000 0.750000
vt 0.625000 1.000000
vt 0.375000 1.000000
vt 0.125000 0.500000
vt 0.125000 0.750000
vt 0.875000 0.500000
vt 0.875000 0.750000
vt 0.375000 0.000000
vt 0.625000 0.000000
vt 0.625000 0.250000
vt 0.375000 0.250000
vt 0.625000 0.500000
vt 0.375000 0.500000
vt 0.375000 0.500000
vt 0.625000 0.500000
vt 0.625000 0.750000
vt 0.375000 0.750000
vt 0.375000 0.000000
vt 0.625000 0.000000
vt 0.125000 0.500000
vt 0.125000 0.750000
vt 0.875000 0.500000
vt 0.875000 0.750000
vt 0.375000 0.250000
vt 0.625000 0.250000
vt 0.125000 0.500000
vt 0.875000 0.500000
vt 0.375000 0.750000
vt 0.625000 0.750000
vt 0.625000 1.000000
vt 0.375000 1.000000
vt 0.125000 0.750000
vt 0.875000 0.750000
vt 0.250000 0.490000
vt 0.250000 0.250000
vt 0.296822 0.485388
vt 0.341844 0.471731
vt 0.383337 0.449553
vt 0.419706 0.419706
vt 0.449553 0.383337
vt 0.471731 0.341844
vt 0.485388 0.296822
vt 0.490000 0.250000
vt 0.485388 0.203178
vt 0.471731 0.158156
vt 0.449553 0.116663
vt 0.419706 0.080294
vt 0.383337 0.050447
vt 0.341844 0.028269
vt 0.296822 0.014612
vt 0.250000 0.010000
vt 0.203178 0.014612
vt 0.158156 0.028269
vt 0.116663 0.050447
vt 0.080294 0.080294
vt 0.050447 0.116663
vt 0.028269 0.158156
vt 0.014612 0.203178
vt 0.010000 0.250000
vt 0.014612 0.296822
vt 0.028269 0.341844
vt 0.050447 0.383337
vt 0.080294 0.419706
vt 0.116663 0.449553
vt 0.158156 0.471731
vt 0.750000 0.490000
vt 0.796822 0.485388
vt 0.841844 0.471731
vt 0.883337 0.449553
vt 0.919706 0.419706
vt 0.949553 0.383337
vt 0.971731 0.341844
vt 0.985388 0.296822
vt 0.990000 0.250000
vt 0.985388 0.203178
vt 0.971731 0.158156
vt 0.949553 0.116663
vt 0.919706 0.080294
vt 0.883337 0.050447
vt 0.841844 0.028269
vt 0.796822 0.014612
vt 0.750000 0.010000
vt 0.703178 0.014612
vt 0.658156 0.028269
vt 0.616663 0.050447
vt 0.580294 0.080294
vt 0.550447 0.116663
vt 0.528269 0.158156
vt 0.514612 0.203178
vt 0.510000 0.250000
vt 0.514612 0.296822
vt 0.528269 0.341844
vt 0.550447 0.383337
vt 0.580294 0.419706
vt 0.616663 0.449553
vt 0.658156 0.471731
vt 0.703178 0.485388
vt 0.203178 0.485388
vt 1.000000 0.500000
vt 1.000000 1.000000
vt 0.968750 1.000000
vt 0.968750 0.500000
vt 0.937500 1.000000
vt 0.937500 0.500000
vt 0.906250 1.000000
vt 0.906250 0.500000
vt 0.875000 1.000000
vt 0.875000 0.500000
vt 0.843750 1.000000
vt 0.843750 0.500000
vt 0.812500 1.000000
vt 0.812500 0.500000
vt 0.781250 1.000000
vt 0.781250 0.500000
vt 0.750000 1.000000
vt 0.750000 0.500000
vt 0.718750 1.000000
vt 0.718750 0.500000
vt 0.687500 1.000000
vt 0.687500 0.500000
vt 0.656250 1.000000
vt 0.656250 0.500000
vt 0.625000 1.000000
vt 0.625000 0.500000
vt 0.593750 1.000000
vt 0.593750 0.500000
vt 0.562500 1.000000
vt 0.562500 0.500000
vt 0.531250 1.000000
vt 0.531250 0.500000
vt 0.500000 1.000000
vt 0.500000 0.500000
vt 0.468750 1.000000
vt 0.468750 0.500000
vt 0.437500 1.000000
vt 0.437500 0.500000
vt 0.406250 1.000000
vt 0.406250 0.500000
vt 0.375000 1.000000
vt 0.375000 0.500000
vt 0.343750 1.000000
vt 0.343750 0.500000
vt 0.312500 1.000000
vt 0.312500 0.500000
vt 0.281250 1.000000
vt 0.281250 0.500000
vt 0.250000 1.000000
vt 0.250000 0.500000
vt 0.218750 1.000000
vt 0.218750 0.500000
vt 0.187500 1.000000
vt 0.187500 0.500000
vt 0.156250 1.000000
vt 0.156250 0.500000
vt 0.125000 1.000000
vt 0.125000 0.500000
vt 0.093750 1.000000
vt 0.093750 0.500000
vt 0.062500 1.000000
vt 0.062500 0.500000
vt 0.296822 0.485388
vt 0.250000 0.490000
vt 0.203178 0.485388
vt 0.158156 0.471731
vt 0.116663 0.449553
vt 0.080294 0.419706
vt 0.050447 0.383337
vt 0.028269 0.341844
vt 0.014612 0.296822
vt 0.010000 0.250000
vt 0.014612 0.203178
vt 0.028269 0.158156
vt 0.050447 0.116663
vt 0.080294 0.080294
vt 0.116663 0.050447
vt 0.158156 0.028269
vt 0.203178 0.014612
vt 0.250000 0.010000
vt 0.296822 0.014612
vt 0.341844 0.028269
vt 0.383337 0.050447
vt 0.419706 0.080294
vt 0.449553 0.116663
vt 0.471731 0.158156
vt 0.485388 0.203178
vt 0.490000 0.250000
vt 0.485388 0.296822
vt 0.471731 0.341844
vt 0.449553 0.383337
vt 0.419706 0.419706
vt 0.383337 0.449553
vt 0.341844 0.471731
vt 0.031250 1.000000
vt 0.031250 0.500000
vt 0.000000 1.000000
vt 0.000000 0.500000
vt 0.750000 0.490000
vt 0.796822 0.485388
vt 0.841844 0.471731
vt 0.883337 0.449553
vt 0.919706 0.419706
vt 0.949553 0.383337
vt 0.971731 0.341844
vt 0.985388 0.296822
vt 0.990000 0.250000
vt 0.985388 0.203178
vt 0.971731 0.158156
vt 0.949553 0.116663
vt 0.919706 0.080294
vt 0.883337 0.050447
vt 0.841844 0.028269
vt 0.796822 0.014612
vt 0.750000 0.010000
vt 0.703178 0.014612
vt 0.658156 0.028269
vt 0.616663 0.050447
vt 0.580294 0.080294
vt 0.550447 0.116663
vt 0.528269 0.158156
vt 0.514612 0.203178
vt 0.510000 0.250000
vt 0.514612 0.296822
vt 0.528269 0.341844
vt 0.550447 0.383337
vt 0.580294 0.419706
vt 0.616663 0.449553
vt 0.658156 0.471731
vt 0.703178 0.485388
vn 0.1683 -0.8897 -0.4244
vn 0.9594 -0.0265 -0.2809
vn 0.0444 0.0001 0.9990
vn 0.0000 0.0000 1.0000
vn 0.0000 -1.0000 0.0000
vn -0.0017 1.0000 0.0010
vn -0.7077 -0.7064 0.0100
vn -0.0024 -0.9911 -0.1331
vn 0.0007 0.9857 -0.1686
vn -0.9368 -0.0195 -0.3494
vn 0.1887 -0.9820 -0.0006
vn 0.2188 -0.0671 -0.9735
vn 0.3385 0.0043 0.9410
vn -0.6250 0.7806 0.0006
vn -0.7053 -0.7089 -0.0003
vn 0.6266 0.7793 -0.0007
vn 0.6666 -0.7454 -0.0001
vn 0.6264 0.7795 0.0003
vn -0.0232 -0.0253 -0.9994
vn 0.0556 0.0176 0.9983
vn 0.6311 0.7099 -0.3126
vn 0.2823 0.9529 0.1105
vn 0.2306 0.9709 0.0649
vn -0.9584 0.0291 0.2839
vn 0.6284 -0.7210 -0.2921
vn -0.1880 0.9580 0.2164
vn -0.5600 0.7588 -0.3325
vn -0.2122 0.1030 0.9718
vn -0.6265 -0.7093 -0.3232
vn 0.9365 0.0622 0.3452
vn -0.0728 -0.9973 -0.0077
vn -0.6578 0.7532 0.0000
vn -0.0000 1.0000 0.0000
vn 0.6258 -0.7800 0.0000
vn 0.0000 0.0000 -1.0000
vn -1.0000 0.0000 0.0000
vn 0.1949 0.0000 -0.9808
vn -0.1949 0.0000 0.9808
vn 0.6578 -0.7532 0.0000
vn 1.0000 0.0000 0.0000
vn -0.1045 0.0000 -0.9945
vn 0.1045 0.0000 0.9945
vn -0.6258 0.7800 0.0000
vn -0.0628 0.9775 -0.2015
vn -0.1901 0.9600 -0.2056
vn -0.3219 0.9223 -0.2139
vn -0.4603 0.8583 -0.2266
vn -0.6047 0.7584 -0.2433
vn -0.7482 0.6094 -0.2626
vn -0.8723 0.4005 -0.2806
vn -0.9469 0.1362 -0.2912
vn -0.9454 -0.1508 -0.2890
vn -0.8685 -0.4129 -0.2745
vn -0.7435 -0.6187 -0.2536
vn -0.6005 -0.7651 -0.2324
vn -0.4569 -0.8632 -0.2146
vn -0.3195 -0.9260 -0.2012
vn -0.1887 -0.9630 -0.1925
vn -0.0624 -0.9801 -0.1882
vn 0.0624 -0.9801 -0.1882
vn 0.1887 -0.9630 -0.1925
vn 0.3195 -0.9260 -0.2012
vn 0.4569 -0.8632 -0.2146
vn 0.6005 -0.7651 -0.2324
vn 0.7435 -0.6187 -0.2536
vn 0.8685 -0.4129 -0.2745
vn 0.9454 -0.1508 -0.2890
vn 0.9469 0.1362 -0.2912
vn 0.8723 0.4005 -0.2806
vn 0.7482 0.6094 -0.2626
vn 0.6047 0.7584 -0.2433
vn 0.4603 0.8583 -0.2266
vn 0.3219 0.9223 -0.2139
vn 0.0000 0.0255 0.9997
vn 0.1901 0.9600 -0.2056
vn 0.0628 0.9775 -0.2015
vn 0.0326 -0.9995 -0.0060
vn 0.1000 -0.9950 -0.0059
vn 0.1744 -0.9847 -0.0059
vn 0.2623 -0.9650 -0.0057
vn 0.3743 -0.9273 -0.0055
vn 0.5268 -0.8500 -0.0051
vn 0.7375 -0.6753 -0.0040
vn 0.9585 -0.2850 -0.0017
vn 0.9585 0.2850 0.0017
vn 0.7375 0.6753 0.0040
vn 0.5268 0.8500 0.0051
vn 0.3743 0.9273 0.0055
vn 0.2623 0.9650 0.0057
vn 0.1744 0.9847 0.0059
vn 0.1000 0.9950 0.0059
vn 0.0326 0.9995 0.0060
vn -0.0326 0.9995 0.0060
vn -0.1000 0.9950 0.0059
vn -0.1744 0.9847 0.0059
vn -0.2623 0.9650 0.0057
vn -0.3743 0.9273 0.0055
vn -0.5268 0.8500 0.0051
vn -0.7375 0.6753 0.0040
vn -0.9585 0.2850 0.0017
vn -0.9585 -0.2850 -0.0017
vn -0.7375 -0.6753 -0.0040
vn -0.5268 -0.8500 -0.0051
vn -0.3743 -0.9273 -0.0055
vn -0.2623 -0.9650 -0.0057
vn -0.1744 -0.9847 -0.0059
vn 0.0000 0.1787 -0.9839
vn -0.1000 -0.9950 -0.0059
vn -0.0326 -0.9995 -0.0060
vn -0.0000 -0.1787 0.9839
usemtl металл
s off
f 8/1/1 4/2/1 16/3/1 17/4/1
f 8/1/2 7/5/2 11/6/2 12/7/2
f 6/8/3 5/9/3 18/10/3 19/11/3
f 5/9/4 6/8/4 2/12/4 1/13/4
f 3/14/5 7/5/5 5/9/5 1/15/5
f 8/1/6 4/2/6 2/16/6 6/8/6
f 9/17/7 10/18/7 12/7/7 11/6/7
f 7/5/8 3/14/8 9/19/8 11/6/8
f 4/2/9 8/1/9 12/7/9 10/20/9
f 3/21/10 4/22/10 10/18/10 9/17/10
f 13/23/11 14/24/11 16/25/11 15/26/11
f 4/22/12 3/21/12 15/26/12 16/25/12
f 1/13/13 2/12/13 14/27/13 13/28/13
f 2/16/14 4/2/14 16/3/14 14/29/14
f 3/14/15 1/15/15 13/30/15 15/31/15
f 20/32/16 21/33/16 19/11/16 18/10/16
f 5/9/17 7/5/17 20/32/17 18/10/17
f 8/1/18 6/8/18 19/11/18 21/33/18
f 7/5/19 8/1/19 21/33/19 20/32/19
f 22/34/20 23/35/20 25/36/20 24/37/20
f 24/37/21 25/36/21 29/38/21 28/39/21
f 28/39/22 29/38/22 27/40/22 26/41/22
f 26/41/23 27/40/23 23/42/23 22/43/23
f 24/44/24 28/39/24 26/41/24 22/45/24
f 29/38/25 25/46/25 23/47/25 27/40/25
f 30/48/26 31/49/26 33/50/26 32/51/26
f 32/51/27 33/50/27 37/52/27 36/53/27
f 36/53/28 37/52/28 35/54/28 34/55/28
f 34/55/29 35/54/29 31/56/29 30/57/29
f 32/58/30 36/53/30 34/55/30 30/59/30
f 37/52/31 33/60/31 31/61/31 35/54/31
usemtl золото.001
f 38/62/5 39/63/5 41/64/5 40/65/5
f 45/66/32 44/67/32 112/68/32 113/69/32
f 44/67/33 45/66/33 43/70/33 42/71/33
f 39/63/34 38/62/34 114/72/34 115/73/34
f 40/74/35 44/67/35 42/71/35 38/75/35
f 45/66/4 41/76/4 39/77/4 43/70/4
f 110/78/36 111/79/36 113/69/36 112/68/36
f 44/67/37 40/74/37 110/80/37 112/68/37
f 41/76/38 45/66/38 113/69/38 111/81/38
f 40/65/39 41/64/39 111/79/39 110/78/39
f 116/82/40 117/83/40 115/84/40 114/85/40
f 38/75/41 42/71/41 116/82/41 114/86/41
f 43/70/42 39/77/42 115/87/42 117/83/42
f 42/71/43 43/70/43 117/83/43 116/82/43
f 118/88/44 150/89/44 119/90/44
f 119/90/45 150/89/45 120/91/45
f 120/91/46 150/89/46 121/92/46
f 121/92/47 150/89/47 122/93/47
f 122/93/48 150/89/48 123/94/48
f 123/94/49 150/89/49 124/95/49
f 124/95/50 150/89/50 125/96/50
f 125/96/51 150/89/51 126/97/51
f 126/97/52 150/89/52 127/98/52
f 127/98/53 150/89/53 128/99/53
f 128/99/54 150/89/54 129/100/54
f 129/100/55 150/89/55 130/101/55
f 130/101/56 150/89/56 131/102/56
f 131/102/57 150/89/57 132/103/57
f 132/103/58 150/89/58 133/104/58
f 133/104/59 150/89/59 134/105/59
f 134/105/60 150/89/60 135/106/60
f 135/106/61 150/89/61 136/107/61
f 136/107/62 150/89/62 137/108/62
f 137/108/63 150/89/63 138/109/63
f 138/109/64 150/89/64 139/110/64
f 139/110/65 150/89/65 140/111/65
f 140/111/66 150/89/66 141/112/66
f 141/112/67 150/89/67 142/113/67
f 142/113/68 150/89/68 143/114/68
f 143/114/69 150/89/69 144/115/69
f 144/115/70 150/89/70 145/116/70
f 145/116/71 150/89/71 146/117/71
f 146/117/72 150/89/72 147/118/72
f 147/118/73 150/89/73 148/119/73
f 118/120/74 119/121/74 120/122/74 121/123/74 122/124/74 123/125/74 124/126/74 125/127/74 126/128/74 127/129/74 128/130/74 129/131/74 130/132/74 131/133/74 132/134/74 133/135/74 134/136/74 135/137/74 136/138/74 137/139/74 138/140/74 139/141/74 140/142/74 141/143/74 142/144/74 143/145/74 144/146/74 145/147/74 146/148/74 147/149/74 148/150/74 149/151/74
f 148/119/75 150/89/75 149/152/75
f 149/152/76 150/89/76 118/88/76
usemtl дерево
f 46/153/77 47/154/77 49/155/77 48/156/77
f 48/156/78 49/155/78 51/157/78 50/158/78
f 50/158/79 51/157/79 53/159/79 52/160/79
f 52/160/80 53/159/80 55/161/80 54/162/80
f 54/162/81 55/161/81 57/163/81 56/164/81
f 56/164/82 57/163/82 59/165/82 58/166/82
f 58/166/83 59/165/83 61/167/83 60/168/83
f 60/168/84 61/167/84 63/169/84 62/170/84
f 62/170/85 63/169/85 65/171/85 64/172/85
f 64/172/86 65/171/86 67/173/86 66/174/86
f 66/174/87 67/173/87 69/175/87 68/176/87
f 68/176/88 69/175/88 71/177/88 70/178/88
f 70/178/89 71/177/89 73/179/89 72/180/89
f 72/180/90 73/179/90 75/181/90 74/182/90
f 74/182/91 75/181/91 77/183/91 76/184/91
f 76/184/92 77/183/92 79/185/92 78/186/92
f 78/186/93 79/185/93 81/187/93 80/188/93
f 80/188/94 81/187/94 83/189/94 82/190/94
f 82/190/95 83/189/95 85/191/95 84/192/95
f 84/192/96 85/191/96 87/193/96 86/194/96
f 86/194/97 87/193/97 89/195/97 88/196/97
f 88/196/98 89/195/98 91/197/98 90/198/98
f 90/198/99 91/197/99 93/199/99 92/200/99
f 92/200/100 93/199/100 95/201/100 94/202/100
f 94/202/101 95/201/101 97/203/101 96/204/101
f 96/204/102 97/203/102 99/205/102 98/206/102
f 98/206/103 99/205/103 101/207/103 100/208/103
f 100/208/104 101/207/104 103/209/104 102/210/104
f 102/210/105 103/209/105 105/211/105 104/212/105
f 104/212/106 105/211/106 107/213/106 106/214/106
f 49/215/107 47/216/107 109/217/107 107/218/107 105/219/107 103/220/107 101/221/107 99/222/107 97/223/107 95/224/107 93/225/107 91/226/107 89/227/107 87/228/107 85/229/107 83/230/107 81/231/107 79/232/107 77/233/107 75/234/107 73/235/107 71/236/107 69/237/107 67/238/107 65/239/107 63/240/107 61/241/107 59/242/107 57/243/107 55/244/107 53/245/107 51/246/107
f 106/214/108 107/213/108 109/247/108 108/248/108
f 108/248/109 109/247/109 47/249/109 46/250/109
f 46/251/110 48/252/110 50/253/110 52/254/110 54/255/110 56/256/110 58/257/110 60/258/110 62/259/110 64/260/110 66/261/110 68/262/110 70/263/110 72/264/110 74/265/110 76/266/110 78/267/110 80/268/110 82/269/110 84/270/110 86/271/110 88/272/110 90/273/110 92/274/110 94/275/110 96/276/110 98/277/110 100/278/110 102/279/110 104/280/110 106/281/110 108/282/110
